PathFileType	4	(X/Y/Z)	C:/Users/opensim2020/Desktop/walking_exp_matlab/subject01_walking15_straight_03.trc	
DataRate	CameraRate	NumFrames	NumMarkers	Units	OrigDataRate	OrigDataStartFrame	OrigNumFrames	
100.00	100.00	5	43	mm	100.00	1600	145	
Frame#	Time	LFHD			RFHD			LBHD			RBHD			C7			T10			CLAV			STRN			RBAK			LSHO			LUPA			LELB			LFRM			LWRA			LWRB			LFIN			RSHO			RUPA			RELB			RFRM			RWRA			RWRB			RFIN			LASI			RASI			LPSI			RPSI			LTHI			LKNE			LTIB			LANK			LHEE			LTOE			RTHI			RKNE			RTIB			RANK			RHEE			RTOE			*39			*40			*41			*42			
		X1	Y1	Z1	X2	Y2	Z2	X3	Y3	Z3	X4	Y4	Z4	X5	Y5	Z5	X6	Y6	Z6	X7	Y7	Z7	X8	Y8	Z8	X9	Y9	Z9	X10	Y10	Z10	X11	Y11	Z11	X12	Y12	Z12	X13	Y13	Z13	X14	Y14	Z14	X15	Y15	Z15	X16	Y16	Z16	X17	Y17	Z17	X18	Y18	Z18	X19	Y19	Z19	X20	Y20	Z20	X21	Y21	Z21	X22	Y22	Z22	X23	Y23	Z23	X24	Y24	Z24	X25	Y25	Z25	X26	Y26	Z26	X27	Y27	Z27	X28	Y28	Z28	X29	Y29	Z29	X30	Y30	Z30	X31	Y31	Z31	X32	Y32	Z32	X33	Y33	Z33	X34	Y34	Z34	X35	Y35	Z35	X36	Y36	Z36	X37	Y37	Z37	X38	Y38	Z38	X39	Y39	Z39	X40	Y40	Z40	X41	Y41	Z41	X42	Y42	Z42	X43	Y43	Z43	

1	0.000	1448.18811	-781.71838	1647.74255	1558.28821	-754.72534	1655.71008	1471.31836	-897.79077	1611.49573	1588.47815	-872.26318	1618.50391	1503.02551	-943.65961	1423.42590	1505.99084	-1001.34644	1131.97815	1512.42078	-802.05225	1349.28003	1510.38379	-771.98749	1190.90503	1578.13062	-1014.78955	1238.18323	1349.96643	-850.31512	1388.75244	1256.90698	-899.58441	1212.40540	1250.18054	-936.19397	1067.98767	1224.25098	-918.87164	955.56158	1245.56396	-872.33496	824.78003	1213.88257	-922.06067	833.65332	1201.00598	-888.28552	758.89514	1658.62061	-870.54980	1391.74951	1756.19641	-966.10706	1207.01147	1768.61572	-976.44141	1079.88879	1806.38232	-918.16571	973.78046	1801.36816	-799.92877	895.20526	1834.65710	-844.00439	880.16779	1847.77051	-778.57764	826.46063	1411.83325	-832.11462	922.88855	1627.45203	-849.40491	923.68500	1444.79260	-1019.03735	928.75769	1588.04590	-1031.75879	941.31042	1355.03223	-751.87573	610.50281	1379.80652	-716.60492	481.62518	1383.90601	-780.03760	303.69003	1446.38220	-828.12231	93.05120	1506.29297	-870.69879	68.99097	1432.24585	-695.64386	45.60549	1691.32434	-949.89215	599.37396	1677.71814	-967.54480	439.59061	1687.78479	-1054.16455	284.61404	1646.53894	-1110.79517	82.32758	1593.57397	-1158.68604	48.51735	1667.81360	-977.93176	30.65497	1536.56946	-766.35510	1689.33533	-3101.96802	1973.25244	1023.39941	-3140.73096	2012.49463	1022.05695			 
2	0.010	1447.85010	-770.04926	1646.82996	1558.01770	-742.38495	1654.81335	1471.86108	-885.87262	1610.55261	1588.83179	-859.81213	1617.72119	1504.42432	-931.91132	1422.68701	1507.90637	-990.22437	1131.11475	1512.78760	-790.39795	1348.04541	1510.72778	-760.94055	1189.52380	1580.55200	-1002.83765	1237.67566	1350.65198	-839.99432	1387.57458	1258.20300	-891.29639	1211.43042	1251.69617	-929.54199	1068.14209	1224.12329	-915.93243	955.82190	1242.64148	-872.86578	823.26038	1212.53918	-923.43842	834.30023	1197.76672	-892.24658	758.37811	1659.27588	-857.35663	1391.23865	1758.46423	-951.87012	1206.80579	1771.90503	-961.45856	1079.82007	1809.49268	-900.04846	975.56384	1803.07263	-779.82306	900.40771	1837.19238	-822.74738	884.21741	1849.79639	-755.57825	832.73566	1412.80164	-821.92798	921.97913	1628.71729	-838.34283	922.80878	1446.91016	-1008.80804	927.74731	1589.90137	-1020.84052	941.05652	1354.43945	-741.90729	609.99017	1379.76953	-705.68909	481.46967	1383.46826	-759.06738	300.44772	1445.60132	-792.99243	86.66608	1505.61230	-833.57330	60.21312	1431.44470	-656.67792	47.02488	1692.42444	-942.92920	599.61365	1678.75061	-963.08740	439.98184	1688.40466	-1051.41406	285.83929	1647.20056	-1110.14429	84.27297	1594.12036	-1158.32434	51.10226	1667.79883	-977.85504	30.68114	1536.25366	-754.07458	1688.33447	-3101.88281	1973.22864	1023.60382	-3140.79810	2012.52759	1022.02386			 
3	0.020	1447.52917	-758.31842	1645.69189	1557.45520	-730.04651	1653.81836	1472.23511	-874.05164	1609.59045	1589.06970	-847.27301	1616.98987	1505.59473	-920.07996	1421.87744	1509.56860	-979.21869	1130.44202	1512.92542	-778.68585	1346.80164	1510.95422	-749.84393	1188.15417	1582.66675	-990.80347	1237.17053	1351.14795	-829.48993	1386.32922	1259.28687	-882.74695	1210.50366	1252.70020	-923.51776	1068.15771	1224.07788	-912.51501	956.17163	1239.87024	-872.85754	822.04871	1211.30347	-923.86255	834.97693	1194.99463	-895.55579	758.28467	1659.76062	-844.23566	1390.70422	1760.43530	-937.64471	1206.60291	1774.84460	-946.53534	1079.75024	1812.21338	-882.15601	977.32635	1804.51538	-760.06201	905.54370	1839.33594	-802.02130	888.31274	1851.45898	-733.16101	838.93665	1413.70435	-811.41071	921.09399	1629.94507	-827.04553	921.94470	1448.74854	-998.28448	926.92487	1591.52307	-1009.52185	940.67114	1353.92236	-732.45636	609.04779	1379.89099	-695.38910	480.84192	1382.90137	-738.22021	297.53317	1445.16626	-756.01086	80.81966	1504.46387	-795.83167	52.23589	1430.70398	-618.42694	49.09705	1693.47095	-935.76050	599.86426	1679.70789	-958.30792	440.32614	1688.68164	-1048.24329	287.05026	1647.73389	-1109.16089	85.95358	1594.73352	-1157.89539	53.78952	1667.97437	-977.70941	30.64306	1535.78613	-741.74231	1687.30798	-3101.95093	1973.21887	1023.52771	-3140.76147	2012.53723	1022.12439			 
4	0.030	1447.26514	-746.29498	1644.24060	1556.75439	-717.76715	1652.73926	1472.50134	-862.21698	1608.59705	1589.12109	-834.77429	1616.17249	1506.53186	-908.15515	1421.09094	1510.91919	-968.03857	1129.73975	1513.04016	-766.93976	1345.57751	1511.03601	-738.65887	1186.84961	1584.47766	-978.67542	1236.53882	1351.52246	-818.65723	1385.08081	1260.12610	-873.77661	1209.53076	1253.88855	-916.28223	1068.31836	1224.04712	-908.70795	956.55731	1237.44666	-872.38458	821.07544	1210.39600	-923.61865	835.80023	1192.61975	-898.06378	758.40961	1660.05322	-831.19275	1390.12122	1762.16577	-923.44580	1206.36060	1777.37842	-931.74506	1079.62231	1814.48425	-864.59265	979.08698	1805.59448	-740.81281	910.45654	1841.08850	-781.77673	892.36316	1852.73438	-711.49377	845.07330	1414.50305	-800.50867	919.98712	1631.08081	-815.58466	921.14594	1450.45081	-987.67859	926.21899	1593.02954	-998.00464	940.43066	1353.20862	-723.47321	607.56354	1380.12585	-685.44257	479.86819	1382.28174	-717.48096	294.90186	1443.73486	-721.33118	77.06660	1503.14734	-759.36108	46.36416	1429.74097	-581.48785	52.53906	1694.57910	-928.31616	600.19873	1680.61975	-953.00342	440.70480	1689.27417	-1044.88831	288.76349	1648.35718	-1108.19421	88.27843	1595.20654	-1157.19617	56.81225	1668.10742	-977.58569	30.49174	1535.11768	-729.41992	1686.29663	-3101.84082	1973.23340	1023.43604	-3140.67090	2012.50305	1022.02002			 
5	0.040	1446.59741	-734.62537	1643.05127	1556.03333	-705.27020	1651.76282	1472.61609	-850.31116	1607.56409	1589.04309	-822.25006	1615.35486	1507.22632	-896.19434	1420.16748	1512.02161	-956.67780	1128.99597	1512.95325	-755.07379	1344.40186	1510.97095	-727.30017	1185.56116	1585.98657	-966.54736	1235.90381	1351.78308	-807.77295	1383.78723	1260.82825	-864.63489	1208.59412	1254.91602	-908.41254	1068.19861	1224.04199	-904.26239	956.84418	1235.42529	-871.30792	820.26227	1209.58862	-922.58588	836.69568	1190.60437	-899.71521	758.73029	1660.17712	-818.21057	1389.58154	1763.59180	-909.34851	1206.10913	1779.49451	-917.04657	1079.44360	1816.40808	-847.28912	980.70844	1806.33301	-722.09259	915.15503	1842.40112	-762.14124	896.30756	1853.63855	-690.42908	850.94373	1415.25061	-789.43903	919.04132	1631.98230	-804.06189	920.23132	1452.01025	-976.15613	925.24542	1594.49841	-986.58923	940.47699	1352.61011	-714.84961	605.58905	1380.38354	-675.32349	478.62378	1381.54578	-696.88458	292.80350	1442.36401	-687.68811	74.48766	1501.68213	-724.42047	41.97139	1428.47388	-546.50720	57.63453	1695.70728	-920.57898	600.59863	1681.48022	-947.18799	441.17282	1689.83350	-1040.95898	290.34161	1648.94165	-1106.93787	90.56232	1595.68689	-1156.36292	59.74692	1668.24451	-977.38440	30.39272	1534.32373	-717.07294	1685.25122	-3102.08960	1972.95618	1024.05652	-3140.69629	2012.52856	1022.10901			 
